# xmcd CD database file
# Copyright (C) 1993-1998 Ti Kan
#
# Track frame offsets:
#	182
#	16012
#	29442
#	41455
#	52550
#	66052
#	81650
#	94437
#	110172
#	124220
#	139795
#	149285
#	162455
#	178562
#	191990
#	206407
#
# Disc length: 2941 seconds
#
# Revision: 1
# Processed by: cddbd v1.4b41PL1 Copyright (c) Steve Scherf et al.
# Submitted via: CDValet v3.01 - Copyright (c) 1997 Greg Leichner
#
DISCID=e60b7b10
DTITLE=Orlando Silva - Francisco Alves - Silvio Caldas - Carlos Galhardo - Ace
DTITLE=rvo Especial - Os Quatro Grandes
DYEAR=1900
DGENRE=
TTITLE0=Labios Que Beijei
TTITLE1=Boa Noite Amor
TTITLE2=Da Cor Do Pecado
TTITLE3=Facinação
TTITLE4=Coqueiro Velho
TTITLE5=Serra Da Boa Esperança
TTITLE6=Mulher
TTITLE7=Maringa
TTITLE8=Enquanto Houver Saudade
TTITLE9=Foi Ela
TTITLE10=Velho Realejo
TTITLE11=Devolve
TTITLE12=Nada Alem
TTITLE13=Longe Dos Olhos
TTITLE14=Serenata
TTITLE15=Bodas De Prata
EXTD=
EXTT0=
EXTT1=
EXTT2=
EXTT3=
EXTT4=
EXTT5=
EXTT6=
EXTT7=
EXTT8=
EXTT9=
EXTT10=
EXTT11=
EXTT12=
EXTT13=
EXTT14=
EXTT15=
PLAYORDER=
